<svg xmlns="http://www.w3.org/2000/svg" width="174" height="35" viewBox="0 0 174 35">
    <g class="fit-pregnancy">
        <path d="M36.328 12.29h3.329l.118-1.473h-3.227l.642-4.294h-1.432c-1.63 2.664-3.303 4.294-6.643 4.294h-.478l-.198 1.473h1.831l-1.432 8.831c-.438 2.822-1.948 3.143-3.183 3.143-1.154 0-1.392-1.074-1.074-3.223l1.194-8.075c.198-1.312-.24-2.148-1.71-2.148h-7.891l.294-2.584c.636-5.569 1.828-6.801 3.936-6.801.655 0 1.704.306 2.201.809-.551.516-1.365 1.47-1.365 2.729 0 1.71 1.074 2.667 2.665 2.667 1.63 0 2.744-1.355 2.744-3.343 0-3.103-3.26-4.294-6.563-4.294-6.125 0-9.665 3.618-10.221 8.471l-.265 2.345h-3.633l-.198 1.513h3.661l-1.673 14.795c-.636 5.767-.836 6.405-2.865 6.405-.518 0-.93-.068-1.262-.18.751-.539 1.54-1.433 1.54-2.527 0-1.47-.994-2.464-2.427-2.464-1.629 0-2.743 1.272-2.743 2.625 0 2.664 2.506 4.016 5.211 4.016 5.608 0 8.631-3.578 9.189-8.591l1.602-14.08h1.38c1.59 0 2.346.358 1.988 2.704l-1.114 6.841c-.476 3.024 1.114 4.615 4.417 4.615 2.902 0 5.09-.479 6.044-2.785.318 1.59 1.512 2.785 3.858 2.785 6.125 0 6.643-2.108 7.159-6.165h-1.51c-.398 3.3-1.353 3.939-2.467 3.939-.914 0-1.074-.876-.756-3.105l1.327-8.868zM62.488 13.667v-2.85h-3.621v15.354h3.939v-7.875c0-3.303 1.827-4.217 4.454-4.217h.158v-3.581h-.078c-1.948.001-3.791 1.04-4.852 3.169zM51.032 10.499c-1.89 0-3.576 1.27-4.494 2.83v-2.512h-3.701v20.565h3.939v-7.422c.808 1.25 2.377 2.529 4.256 2.529 3.739 0 6.245-3.103 6.245-7.875 0-4.892-2.308-8.115-6.245-8.115zm-.876 12.65c-2.266 0-3.38-1.593-3.38-4.535 0-2.985.796-4.812 3.38-4.812 2.269 0 3.103 1.828 3.103 4.812 0 3.183-1.074 4.535-3.103 4.535zM75.176 10.499c-4.692 0-7.319 3.42-7.319 7.995 0 4.495 2.387 7.995 7.439 7.995 3.937 0 6.205-2.226 6.761-5.171h-3.778c-.398 1.034-1.034 2.148-2.982 2.148-1.924 0-3.315-1.392-3.438-3.858h10.476c-.041-5.528-2.267-9.109-7.159-9.109zm0 3.063c1.88 0 2.996 1.182 3.073 3.621h-6.379c.093-2.405 1.427-3.621 3.306-3.621zM152.976 13.842c1.432 0 2.386.793 2.664 2.266h3.938c-.596-3.34-2.506-5.609-6.841-5.609-4.812 0-7.358 3.621-7.358 8.035 0 4.375 2.466 7.955 7.557 7.955 4.137 0 6.405-2.705 6.643-5.727h-3.738c-.2 1.59-1.433 2.386-2.864 2.386-2.624 0-3.581-1.831-3.581-4.615-.001-2.981 1.313-4.691 3.58-4.691zM138.618 10.499c-1.7 0-3.123 1.046-4.177 2.724v-2.406h-3.938v15.354h3.938v-8.791c0-1.988.914-3.46 3.022-3.46 1.79 0 2.466 1.194 2.466 2.864v9.387h3.937v-9.865c0-3.103-1.55-5.807-5.248-5.807zM169.642 10.817l-1.433 5.093c-.397 1.352-1.034 4.254-1.194 5.448h-.117c-.16-1.352-.756-3.621-1.353-5.408l-1.71-5.133h-4.297l3.938 10.819c.914 2.547 1.152 3.461 1.152 4.297 0 1.152-.556 1.988-2.347 1.988h-1.312v3.46h2.266c3.183 0 4.297-1.472 5.451-4.973l5.171-15.592h-4.215zM108.428 10.499c-1.697 0-3.122 1.046-4.177 2.724v-2.406h-3.938v15.354h3.938v-8.869c0-1.991.914-3.46 3.022-3.46 1.79 0 2.467 1.192 2.467 2.862v9.467h3.938v-9.865c.001-3.103-1.552-5.807-5.25-5.807zM94.349 12.87c-1.18-1.708-2.547-2.371-4.177-2.371-3.938 0-6.525 2.864-6.525 7.915 0 4.853 2.707 7.359 6.525 7.359 1.915 0 3.14-.699 3.976-2.078v1.402c0 2.586-1.073 3.581-3.142 3.581-1.908 0-2.825-.836-3.103-1.911h-3.858c.24 2.784 3.024 4.772 6.961 4.772 2.068 0 4.176-.516 5.488-1.828.994-.994 1.553-2.667 1.553-4.614v-14.28h-3.698v2.053zm-3.423 10.319c-1.908 0-3.301-1.392-3.301-4.815 0-2.942 1.393-4.532 3.103-4.532 2.507 0 3.461 1.908 3.461 4.532-.001 2.707-.955 4.815-3.263 4.815zm3.383.754l-.053-.398.053-.078v.476zM128.274 16.188c0-3.621-1.671-5.689-6.045-5.689-4.494 0-6.325 2.586-6.643 5.17h3.698c.357-1.432 1.154-2.148 2.824-2.148 1.75 0 2.467.876 2.467 1.871 0 1.154-1.074 1.312-3.341 1.71-3.5.596-6.047 1.392-6.047 4.853 0 2.904 2.068 4.455 4.973 4.455 2.744 0 3.581-1.034 4.415-2.306 0 1.034.277 1.83.518 2.068h3.578v-.238c-.237-.358-.397-.796-.397-1.91v-7.836zm-3.698 4.615c0 1.272-1.074 2.504-3.341 2.504-1.473 0-2.306-.516-2.306-1.71 0-1.312 1.191-1.67 3.14-2.148.956-.238 2.108-.716 2.507-1.034v2.388z"/>
    </g>
</svg>
